<svg width="300" height="300" viewBox="0 0 300 300" fill="none" xmlns="http://www.w3.org/2000/svg">
<g clip-path="url(#clip0_26_148)">
<g filter="url(#filter0_f_26_148)">
<circle cx="150" cy="120" r="50" fill="#FFC701" fill-opacity="0.35"/>
</g>
<circle cx="150" cy="121.639" r="47.3607" fill="url(#paint0_linear_26_148)" stroke="url(#paint1_linear_26_148)" stroke-width="2"/>
<mask id="mask0_26_148" style="mask-type:alpha" maskUnits="userSpaceOnUse" x="101" y="100" width="98" height="70">
<path d="M198.361 121.639C198.361 148.348 176.709 170 150 170C123.291 170 101.639 148.348 101.639 121.639C101.639 94.9305 119.603 101.148 146.311 101.148C173.02 101.148 198.361 94.9305 198.361 121.639Z" fill="url(#paint2_linear_26_148)"/>
</mask>
<g mask="url(#mask0_26_148)">
<g filter="url(#filter1_f_26_148)">
<path fill-rule="evenodd" clip-rule="evenodd" d="M223.771 210.164C223.771 229.63 207.991 245.41 188.525 245.41C188.388 245.41 188.251 245.409 188.115 245.407V245.41H64.3444L64.346 245.408C64.209 245.409 64.0718 245.41 63.9344 245.41C44.4686 245.41 28.6885 229.63 28.6885 210.164C28.6885 190.698 44.4686 174.918 63.9344 174.918C80.7133 174.918 94.7538 186.643 98.3102 202.346L110.246 187.213L147.541 174.918H188.115V174.92C188.251 174.919 188.388 174.918 188.525 174.918C207.991 174.918 223.771 190.698 223.771 210.164Z" fill="#E18700"/>
</g>
</g>
</g>
<defs>
<filter id="filter0_f_26_148" x="0" y="-30" width="300" height="300" filterUnits="userSpaceOnUse" color-interpolation-filters="sRGB">
<feFlood flood-opacity="0" result="BackgroundImageFix"/>
<feBlend mode="normal" in="SourceGraphic" in2="BackgroundImageFix" result="shape"/>
<feGaussianBlur stdDeviation="50" result="effect1_foregroundBlur_26_148"/>
</filter>
<filter id="filter1_f_26_148" x="14.6885" y="160.918" width="223.082" height="98.4921" filterUnits="userSpaceOnUse" color-interpolation-filters="sRGB">
<feFlood flood-opacity="0" result="BackgroundImageFix"/>
<feBlend mode="normal" in="SourceGraphic" in2="BackgroundImageFix" result="shape"/>
<feGaussianBlur stdDeviation="7" result="effect1_foregroundBlur_26_148"/>
</filter>
<linearGradient id="paint0_linear_26_148" x1="150" y1="73.2786" x2="150" y2="170" gradientUnits="userSpaceOnUse">
<stop stop-color="#FFE600"/>
<stop offset="1" stop-color="#FF7A00"/>
</linearGradient>
<linearGradient id="paint1_linear_26_148" x1="150" y1="73.2786" x2="150" y2="170" gradientUnits="userSpaceOnUse">
<stop stop-color="white"/>
<stop offset="1" stop-color="white" stop-opacity="0"/>
</linearGradient>
<linearGradient id="paint2_linear_26_148" x1="150" y1="73.2787" x2="150" y2="170" gradientUnits="userSpaceOnUse">
<stop stop-color="#FFD600"/>
<stop offset="1" stop-color="#FF7A00"/>
</linearGradient>
<clipPath id="clip0_26_148">
<rect width="300" height="300" fill="white"/>
</clipPath>
</defs>
</svg>
