<svg width="404" height="337" viewBox="0 0 404 337" fill="none" xmlns="http://www.w3.org/2000/svg">
<g filter="url(#filter0_bd_21_117)">
<mask id="path-1-inside-1_21_117" fill="white">
<path fill-rule="evenodd" clip-rule="evenodd" d="M265.5 195.997C265.666 195.999 265.833 196 266 196C289.748 196 309 176.748 309 153C309 129.252 289.748 110 266 110C265.833 110 265.666 110.001 265.5 110.003V110H254.391C254.793 107.057 255 104.053 255 101C255 64.5492 225.451 35 189 35C152.549 35 123 64.5492 123 101C123 104.439 123.263 107.817 123.77 111.115C120.631 110.386 117.361 110 114 110C90.2518 110 71 129.252 71 153C71 176.748 90.2518 196 114 196C114.168 196 114.335 195.999 114.502 195.997L114.5 196H265.5V195.997Z"/>
</mask>
<path fill-rule="evenodd" clip-rule="evenodd" d="M265.5 195.997C265.666 195.999 265.833 196 266 196C289.748 196 309 176.748 309 153C309 129.252 289.748 110 266 110C265.833 110 265.666 110.001 265.5 110.003V110H254.391C254.793 107.057 255 104.053 255 101C255 64.5492 225.451 35 189 35C152.549 35 123 64.5492 123 101C123 104.439 123.263 107.817 123.77 111.115C120.631 110.386 117.361 110 114 110C90.2518 110 71 129.252 71 153C71 176.748 90.2518 196 114 196C114.168 196 114.335 195.999 114.502 195.997L114.5 196H265.5V195.997Z" fill="url(#paint0_linear_21_117)" shape-rendering="crispEdges"/>
<path d="M265.5 195.997L265.523 193.997C264.988 193.991 264.474 194.199 264.094 194.575C263.714 194.951 263.5 195.463 263.5 195.997H265.5ZM265.5 110.003H263.5C263.5 110.537 263.714 111.049 264.094 111.425C264.474 111.801 264.988 112.009 265.523 112.003L265.5 110.003ZM265.5 110H267.5C267.5 108.895 266.605 108 265.5 108V110ZM254.391 110L252.41 109.73C252.332 110.302 252.505 110.88 252.885 111.315C253.265 111.75 253.814 112 254.391 112V110ZM123.77 111.115L123.318 113.063C123.964 113.213 124.643 113.033 125.13 112.582C125.617 112.13 125.848 111.467 125.747 110.811L123.77 111.115ZM114.502 195.997L116.072 197.237C116.549 196.632 116.637 195.807 116.297 195.115C115.957 194.423 115.25 193.988 114.479 193.997L114.502 195.997ZM114.5 196L112.931 194.76C112.455 195.362 112.366 196.182 112.7 196.872C113.034 197.562 113.733 198 114.5 198V196ZM265.5 196V198C266.605 198 267.5 197.105 267.5 196H265.5ZM265.477 197.997C265.651 197.999 265.825 198 266 198V194C265.841 194 265.682 193.999 265.523 193.997L265.477 197.997ZM266 198C290.853 198 311 177.853 311 153H307C307 175.644 288.644 194 266 194V198ZM311 153C311 128.147 290.853 108 266 108V112C288.644 112 307 130.356 307 153H311ZM266 108C265.826 108 265.651 108.001 265.477 108.003L265.523 112.003C265.682 112.001 265.841 112 266 112V108ZM263.5 110V110.003H267.5V110H263.5ZM254.391 112H265.5V108H254.391V112ZM256.373 110.27C256.787 107.238 257 104.143 257 101H253C253 103.962 252.799 106.876 252.41 109.73L256.373 110.27ZM257 101C257 63.4446 226.555 33 189 33V37C224.346 37 253 65.6538 253 101H257ZM189 33C151.445 33 121 63.4446 121 101H125C125 65.6538 153.654 37 189 37V33ZM121 101C121 104.542 121.271 108.021 121.793 111.419L125.747 110.811C125.255 107.614 125 104.337 125 101H121ZM124.223 109.167C120.937 108.403 117.514 108 114 108V112C117.207 112 120.326 112.368 123.318 113.063L124.223 109.167ZM114 108C89.1472 108 69 128.147 69 153H73C73 130.356 91.3563 112 114 112V108ZM69 153C69 177.853 89.1472 198 114 198V194C91.3563 194 73 175.644 73 153H69ZM114 198C114.175 198 114.35 197.999 114.525 197.997L114.479 193.997C114.32 193.999 114.16 194 114 194V198ZM116.069 197.24L116.072 197.237L112.933 194.757L112.931 194.76L116.069 197.24ZM265.5 194H114.5V198H265.5V194ZM263.5 195.997V196H267.5V195.997H263.5Z" fill="url(#paint1_linear_21_117)" mask="url(#path-1-inside-1_21_117)"/>
</g>
<g filter="url(#filter1_bdd_21_117)">
<g filter="url(#filter2_bdd_21_117)">
<mask id="path-3-inside-2_21_117" fill="white">
<path d="M217.437 253.071L215.423 252.117L215.818 251.839C216.189 251.591 216.507 251.271 216.754 250.897C217.001 250.524 217.172 250.105 217.256 249.665C217.341 249.225 217.338 248.772 217.247 248.333C217.155 247.894 216.979 247.477 216.726 247.108C216.221 246.362 215.444 245.847 214.564 245.676C213.684 245.505 212.772 245.691 212.028 246.194L209.975 247.625L208.395 248.698L202.749 245.915L207.961 242.377L209.659 243.212L212.304 244.524C213.083 244.783 213.929 244.749 214.685 244.429C215.441 244.109 216.057 243.524 216.418 242.783C216.779 242.041 216.861 241.193 216.649 240.395C216.437 239.597 215.946 238.903 215.265 238.442L214.436 238.004L216.252 236.772C216.617 236.518 216.928 236.193 217.168 235.817C217.407 235.441 217.57 235.021 217.647 234.581C217.724 234.141 217.714 233.69 217.617 233.254C217.52 232.818 217.338 232.406 217.081 232.041C216.577 231.295 215.8 230.781 214.919 230.609C214.039 230.438 213.127 230.624 212.383 231.127L210.567 232.359V232.041C210.536 231.598 210.418 231.164 210.221 230.767C210.023 230.369 209.75 230.014 209.416 229.722C209.083 229.43 208.695 229.208 208.276 229.067C207.857 228.926 207.415 228.87 206.974 228.901C206.533 228.932 206.103 229.051 205.708 229.249C205.312 229.448 204.96 229.723 204.67 230.059C204.381 230.395 204.16 230.785 204.02 231.207C203.88 231.629 203.824 232.075 203.855 232.518V235.023V236.931L198.683 240.509L198.248 234.188L199.788 233.115L202.236 231.445C202.839 230.89 203.226 230.137 203.327 229.321C203.428 228.506 203.237 227.68 202.789 226.993C202.33 226.311 201.642 225.819 200.851 225.607C200.06 225.395 199.22 225.478 198.485 225.84L197.696 226.357V224.131C197.662 223.687 197.542 223.254 197.342 222.857C197.142 222.46 196.867 222.107 196.531 221.817C196.196 221.527 195.807 221.307 195.387 221.168C194.967 221.03 194.524 220.976 194.083 221.01C193.642 221.044 193.213 221.165 192.818 221.366C192.424 221.567 192.073 221.845 191.785 222.182C191.497 222.52 191.279 222.912 191.141 223.335C191.003 223.757 190.95 224.204 190.984 224.647V226.834H190.51C189.718 226.531 188.842 226.538 188.054 226.852C187.267 227.167 186.624 227.767 186.253 228.534C185.882 229.3 185.81 230.179 186.049 230.998C186.289 231.816 186.824 232.514 187.549 232.956L189.799 234.029L191.536 234.864L191.971 241.185L186.325 238.442V236.534L186.088 233.552C185.92 232.743 185.467 232.022 184.812 231.524C184.157 231.025 183.344 230.783 182.525 230.841C181.706 230.899 180.936 231.254 180.357 231.84C179.778 232.427 179.429 233.204 179.376 234.029V234.943L177.599 233.632C176.807 233.329 175.931 233.336 175.144 233.65C174.356 233.965 173.714 234.564 173.343 235.331C172.972 236.098 172.899 236.977 173.139 237.795C173.378 238.614 173.913 239.312 174.638 239.754L176.612 240.747L176.218 240.986C175.482 241.508 174.977 242.297 174.807 243.187C174.638 244.076 174.818 244.998 175.309 245.756C175.559 246.127 175.879 246.444 176.251 246.689C176.623 246.933 177.04 247.101 177.477 247.183C177.914 247.264 178.363 247.257 178.797 247.163C179.232 247.068 179.643 246.887 180.008 246.631L182.1 245.24L183.64 244.166L189.286 246.909L184.114 250.447L182.416 249.612L179.771 248.34C179.018 248.115 178.211 248.163 177.489 248.475C176.768 248.788 176.178 249.345 175.823 250.05C175.467 250.794 175.391 251.643 175.608 252.44C175.826 253.236 176.323 253.927 177.007 254.383L177.836 254.78L176.02 256.053C175.655 256.314 175.344 256.645 175.105 257.027C174.867 257.409 174.705 257.834 174.63 258.279C174.555 258.724 174.568 259.179 174.667 259.619C174.767 260.059 174.951 260.475 175.211 260.843C175.47 261.211 175.799 261.524 176.178 261.764C176.557 262.004 176.98 262.167 177.422 262.242C177.864 262.318 178.316 262.305 178.753 262.205C179.19 262.105 179.603 261.919 179.968 261.658L181.784 260.425V260.902C181.779 261.375 181.871 261.844 182.054 262.279C182.237 262.714 182.508 263.106 182.849 263.43C183.191 263.755 183.595 264.004 184.037 264.163C184.479 264.322 184.949 264.387 185.417 264.354C185.886 264.321 186.342 264.19 186.757 263.971C187.173 263.751 187.539 263.447 187.832 263.078C188.125 262.709 188.339 262.283 188.46 261.826C188.581 261.369 188.607 260.893 188.536 260.425V257.921V256.013L193.747 252.475L193.392 258.835L191.813 259.909L189.404 261.578C188.764 262.115 188.344 262.872 188.228 263.703C188.111 264.534 188.306 265.379 188.774 266.073C189.242 266.768 189.95 267.262 190.759 267.46C191.569 267.658 192.423 267.545 193.155 267.144L193.905 266.627V268.813C193.976 269.717 194.396 270.557 195.076 271.151C195.755 271.746 196.639 272.049 197.538 271.994C198.432 271.923 199.262 271.498 199.846 270.813C200.431 270.127 200.722 269.237 200.657 268.336V266.11L201.131 266.349C201.938 266.733 202.863 266.781 203.705 266.483C204.548 266.186 205.24 265.566 205.632 264.759C205.831 264.358 205.949 263.921 205.977 263.474C206.005 263.027 205.944 262.578 205.797 262.155C205.649 261.732 205.419 261.344 205.119 261.012C204.82 260.681 204.457 260.414 204.052 260.227L201.802 259.114L200.104 258.279L199.828 251.918L205.434 254.661V256.569V259.511C205.563 260.349 205.999 261.108 206.658 261.637C207.316 262.166 208.148 262.426 208.989 262.366C209.829 262.306 210.616 261.93 211.193 261.313C211.771 260.696 212.097 259.882 212.107 259.034V258.08L214.12 259.074C214.932 259.469 215.866 259.524 216.717 259.226C217.569 258.927 218.268 258.301 218.661 257.484C219.053 256.667 219.107 255.726 218.811 254.868C218.515 254.011 217.893 253.307 217.081 252.912L217.437 253.071Z"/>
</mask>
<path d="M217.437 253.071L215.423 252.117L215.818 251.839C216.189 251.591 216.507 251.271 216.754 250.897C217.001 250.524 217.172 250.105 217.256 249.665C217.341 249.225 217.338 248.772 217.247 248.333C217.155 247.894 216.979 247.477 216.726 247.108C216.221 246.362 215.444 245.847 214.564 245.676C213.684 245.505 212.772 245.691 212.028 246.194L209.975 247.625L208.395 248.698L202.749 245.915L207.961 242.377L209.659 243.212L212.304 244.524C213.083 244.783 213.929 244.749 214.685 244.429C215.441 244.109 216.057 243.524 216.418 242.783C216.779 242.041 216.861 241.193 216.649 240.395C216.437 239.597 215.946 238.903 215.265 238.442L214.436 238.004L216.252 236.772C216.617 236.518 216.928 236.193 217.168 235.817C217.407 235.441 217.57 235.021 217.647 234.581C217.724 234.141 217.714 233.69 217.617 233.254C217.52 232.818 217.338 232.406 217.081 232.041C216.577 231.295 215.8 230.781 214.919 230.609C214.039 230.438 213.127 230.624 212.383 231.127L210.567 232.359V232.041C210.536 231.598 210.418 231.164 210.221 230.767C210.023 230.369 209.75 230.014 209.416 229.722C209.083 229.43 208.695 229.208 208.276 229.067C207.857 228.926 207.415 228.87 206.974 228.901C206.533 228.932 206.103 229.051 205.708 229.249C205.312 229.448 204.96 229.723 204.67 230.059C204.381 230.395 204.16 230.785 204.02 231.207C203.88 231.629 203.824 232.075 203.855 232.518V235.023V236.931L198.683 240.509L198.248 234.188L199.788 233.115L202.236 231.445C202.839 230.89 203.226 230.137 203.327 229.321C203.428 228.506 203.237 227.68 202.789 226.993C202.33 226.311 201.642 225.819 200.851 225.607C200.06 225.395 199.22 225.478 198.485 225.84L197.696 226.357V224.131C197.662 223.687 197.542 223.254 197.342 222.857C197.142 222.46 196.867 222.107 196.531 221.817C196.196 221.527 195.807 221.307 195.387 221.168C194.967 221.03 194.524 220.976 194.083 221.01C193.642 221.044 193.213 221.165 192.818 221.366C192.424 221.567 192.073 221.845 191.785 222.182C191.497 222.52 191.279 222.912 191.141 223.335C191.003 223.757 190.95 224.204 190.984 224.647V226.834H190.51C189.718 226.531 188.842 226.538 188.054 226.852C187.267 227.167 186.624 227.767 186.253 228.534C185.882 229.3 185.81 230.179 186.049 230.998C186.289 231.816 186.824 232.514 187.549 232.956L189.799 234.029L191.536 234.864L191.971 241.185L186.325 238.442V236.534L186.088 233.552C185.92 232.743 185.467 232.022 184.812 231.524C184.157 231.025 183.344 230.783 182.525 230.841C181.706 230.899 180.936 231.254 180.357 231.84C179.778 232.427 179.429 233.204 179.376 234.029V234.943L177.599 233.632C176.807 233.329 175.931 233.336 175.144 233.65C174.356 233.965 173.714 234.564 173.343 235.331C172.972 236.098 172.899 236.977 173.139 237.795C173.378 238.614 173.913 239.312 174.638 239.754L176.612 240.747L176.218 240.986C175.482 241.508 174.977 242.297 174.807 243.187C174.638 244.076 174.818 244.998 175.309 245.756C175.559 246.127 175.879 246.444 176.251 246.689C176.623 246.933 177.04 247.101 177.477 247.183C177.914 247.264 178.363 247.257 178.797 247.163C179.232 247.068 179.643 246.887 180.008 246.631L182.1 245.24L183.64 244.166L189.286 246.909L184.114 250.447L182.416 249.612L179.771 248.34C179.018 248.115 178.211 248.163 177.489 248.475C176.768 248.788 176.178 249.345 175.823 250.05C175.467 250.794 175.391 251.643 175.608 252.44C175.826 253.236 176.323 253.927 177.007 254.383L177.836 254.78L176.02 256.053C175.655 256.314 175.344 256.645 175.105 257.027C174.867 257.409 174.705 257.834 174.63 258.279C174.555 258.724 174.568 259.179 174.667 259.619C174.767 260.059 174.951 260.475 175.211 260.843C175.47 261.211 175.799 261.524 176.178 261.764C176.557 262.004 176.98 262.167 177.422 262.242C177.864 262.318 178.316 262.305 178.753 262.205C179.19 262.105 179.603 261.919 179.968 261.658L181.784 260.425V260.902C181.779 261.375 181.871 261.844 182.054 262.279C182.237 262.714 182.508 263.106 182.849 263.43C183.191 263.755 183.595 264.004 184.037 264.163C184.479 264.322 184.949 264.387 185.417 264.354C185.886 264.321 186.342 264.19 186.757 263.971C187.173 263.751 187.539 263.447 187.832 263.078C188.125 262.709 188.339 262.283 188.46 261.826C188.581 261.369 188.607 260.893 188.536 260.425V257.921V256.013L193.747 252.475L193.392 258.835L191.813 259.909L189.404 261.578C188.764 262.115 188.344 262.872 188.228 263.703C188.111 264.534 188.306 265.379 188.774 266.073C189.242 266.768 189.95 267.262 190.759 267.46C191.569 267.658 192.423 267.545 193.155 267.144L193.905 266.627V268.813C193.976 269.717 194.396 270.557 195.076 271.151C195.755 271.746 196.639 272.049 197.538 271.994C198.432 271.923 199.262 271.498 199.846 270.813C200.431 270.127 200.722 269.237 200.657 268.336V266.11L201.131 266.349C201.938 266.733 202.863 266.781 203.705 266.483C204.548 266.186 205.24 265.566 205.632 264.759C205.831 264.358 205.949 263.921 205.977 263.474C206.005 263.027 205.944 262.578 205.797 262.155C205.649 261.732 205.419 261.344 205.119 261.012C204.82 260.681 204.457 260.414 204.052 260.227L201.802 259.114L200.104 258.279L199.828 251.918L205.434 254.661V256.569V259.511C205.563 260.349 205.999 261.108 206.658 261.637C207.316 262.166 208.148 262.426 208.989 262.366C209.829 262.306 210.616 261.93 211.193 261.313C211.771 260.696 212.097 259.882 212.107 259.034V258.08L214.12 259.074C214.932 259.469 215.866 259.524 216.717 259.226C217.569 258.927 218.268 258.301 218.661 257.484C219.053 256.667 219.107 255.726 218.811 254.868C218.515 254.011 217.893 253.307 217.081 252.912L217.437 253.071Z" fill="url(#paint2_linear_21_117)"/>
<path d="M217.437 253.071L215.423 252.117L215.818 251.839C216.189 251.591 216.507 251.271 216.754 250.897C217.001 250.524 217.172 250.105 217.256 249.665C217.341 249.225 217.338 248.772 217.247 248.333C217.155 247.894 216.979 247.477 216.726 247.108C216.221 246.362 215.444 245.847 214.564 245.676C213.684 245.505 212.772 245.691 212.028 246.194L209.975 247.625L208.395 248.698L202.749 245.915L207.961 242.377L209.659 243.212L212.304 244.524C213.083 244.783 213.929 244.749 214.685 244.429C215.441 244.109 216.057 243.524 216.418 242.783C216.779 242.041 216.861 241.193 216.649 240.395C216.437 239.597 215.946 238.903 215.265 238.442L214.436 238.004L216.252 236.772C216.617 236.518 216.928 236.193 217.168 235.817C217.407 235.441 217.57 235.021 217.647 234.581C217.724 234.141 217.714 233.69 217.617 233.254C217.52 232.818 217.338 232.406 217.081 232.041C216.577 231.295 215.8 230.781 214.919 230.609C214.039 230.438 213.127 230.624 212.383 231.127L210.567 232.359V232.041C210.536 231.598 210.418 231.164 210.221 230.767C210.023 230.369 209.75 230.014 209.416 229.722C209.083 229.43 208.695 229.208 208.276 229.067C207.857 228.926 207.415 228.87 206.974 228.901C206.533 228.932 206.103 229.051 205.708 229.249C205.312 229.448 204.96 229.723 204.67 230.059C204.381 230.395 204.16 230.785 204.02 231.207C203.88 231.629 203.824 232.075 203.855 232.518V235.023V236.931L198.683 240.509L198.248 234.188L199.788 233.115L202.236 231.445C202.839 230.89 203.226 230.137 203.327 229.321C203.428 228.506 203.237 227.68 202.789 226.993C202.33 226.311 201.642 225.819 200.851 225.607C200.06 225.395 199.22 225.478 198.485 225.84L197.696 226.357V224.131C197.662 223.687 197.542 223.254 197.342 222.857C197.142 222.46 196.867 222.107 196.531 221.817C196.196 221.527 195.807 221.307 195.387 221.168C194.967 221.03 194.524 220.976 194.083 221.01C193.642 221.044 193.213 221.165 192.818 221.366C192.424 221.567 192.073 221.845 191.785 222.182C191.497 222.52 191.279 222.912 191.141 223.335C191.003 223.757 190.95 224.204 190.984 224.647V226.834H190.51C189.718 226.531 188.842 226.538 188.054 226.852C187.267 227.167 186.624 227.767 186.253 228.534C185.882 229.3 185.81 230.179 186.049 230.998C186.289 231.816 186.824 232.514 187.549 232.956L189.799 234.029L191.536 234.864L191.971 241.185L186.325 238.442V236.534L186.088 233.552C185.92 232.743 185.467 232.022 184.812 231.524C184.157 231.025 183.344 230.783 182.525 230.841C181.706 230.899 180.936 231.254 180.357 231.84C179.778 232.427 179.429 233.204 179.376 234.029V234.943L177.599 233.632C176.807 233.329 175.931 233.336 175.144 233.65C174.356 233.965 173.714 234.564 173.343 235.331C172.972 236.098 172.899 236.977 173.139 237.795C173.378 238.614 173.913 239.312 174.638 239.754L176.612 240.747L176.218 240.986C175.482 241.508 174.977 242.297 174.807 243.187C174.638 244.076 174.818 244.998 175.309 245.756C175.559 246.127 175.879 246.444 176.251 246.689C176.623 246.933 177.04 247.101 177.477 247.183C177.914 247.264 178.363 247.257 178.797 247.163C179.232 247.068 179.643 246.887 180.008 246.631L182.1 245.24L183.64 244.166L189.286 246.909L184.114 250.447L182.416 249.612L179.771 248.34C179.018 248.115 178.211 248.163 177.489 248.475C176.768 248.788 176.178 249.345 175.823 250.05C175.467 250.794 175.391 251.643 175.608 252.44C175.826 253.236 176.323 253.927 177.007 254.383L177.836 254.78L176.02 256.053C175.655 256.314 175.344 256.645 175.105 257.027C174.867 257.409 174.705 257.834 174.63 258.279C174.555 258.724 174.568 259.179 174.667 259.619C174.767 260.059 174.951 260.475 175.211 260.843C175.47 261.211 175.799 261.524 176.178 261.764C176.557 262.004 176.98 262.167 177.422 262.242C177.864 262.318 178.316 262.305 178.753 262.205C179.19 262.105 179.603 261.919 179.968 261.658L181.784 260.425V260.902C181.779 261.375 181.871 261.844 182.054 262.279C182.237 262.714 182.508 263.106 182.849 263.43C183.191 263.755 183.595 264.004 184.037 264.163C184.479 264.322 184.949 264.387 185.417 264.354C185.886 264.321 186.342 264.19 186.757 263.971C187.173 263.751 187.539 263.447 187.832 263.078C188.125 262.709 188.339 262.283 188.46 261.826C188.581 261.369 188.607 260.893 188.536 260.425V257.921V256.013L193.747 252.475L193.392 258.835L191.813 259.909L189.404 261.578C188.764 262.115 188.344 262.872 188.228 263.703C188.111 264.534 188.306 265.379 188.774 266.073C189.242 266.768 189.95 267.262 190.759 267.46C191.569 267.658 192.423 267.545 193.155 267.144L193.905 266.627V268.813C193.976 269.717 194.396 270.557 195.076 271.151C195.755 271.746 196.639 272.049 197.538 271.994C198.432 271.923 199.262 271.498 199.846 270.813C200.431 270.127 200.722 269.237 200.657 268.336V266.11L201.131 266.349C201.938 266.733 202.863 266.781 203.705 266.483C204.548 266.186 205.24 265.566 205.632 264.759C205.831 264.358 205.949 263.921 205.977 263.474C206.005 263.027 205.944 262.578 205.797 262.155C205.649 261.732 205.419 261.344 205.119 261.012C204.82 260.681 204.457 260.414 204.052 260.227L201.802 259.114L200.104 258.279L199.828 251.918L205.434 254.661V256.569V259.511C205.563 260.349 205.999 261.108 206.658 261.637C207.316 262.166 208.148 262.426 208.989 262.366C209.829 262.306 210.616 261.93 211.193 261.313C211.771 260.696 212.097 259.882 212.107 259.034V258.08L214.12 259.074C214.932 259.469 215.866 259.524 216.717 259.226C217.569 258.927 218.268 258.301 218.661 257.484C219.053 256.667 219.107 255.726 218.811 254.868C218.515 254.011 217.893 253.307 217.081 252.912L217.437 253.071Z" stroke="url(#paint3_linear_21_117)" stroke-width="3" stroke-linecap="round" stroke-linejoin="round" mask="url(#path-3-inside-2_21_117)"/>
</g>
<g filter="url(#filter3_bdd_21_117)">
<mask id="path-4-inside-3_21_117" fill="white">
<path d="M171.437 202.071L169.423 201.117L169.818 200.839C170.189 200.591 170.507 200.271 170.754 199.897C171.001 199.524 171.172 199.105 171.256 198.665C171.341 198.225 171.338 197.772 171.247 197.333C171.155 196.894 170.979 196.477 170.726 196.108C170.221 195.362 169.444 194.847 168.564 194.676C167.684 194.505 166.772 194.691 166.028 195.194L163.975 196.625L162.395 197.698L156.749 194.915L161.961 191.377L163.659 192.212L166.304 193.524C167.083 193.783 167.929 193.749 168.685 193.429C169.441 193.109 170.057 192.524 170.418 191.783C170.779 191.041 170.861 190.193 170.649 189.395C170.437 188.597 169.946 187.903 169.265 187.442L168.436 187.004L170.252 185.772C170.617 185.518 170.928 185.193 171.168 184.817C171.407 184.441 171.57 184.021 171.647 183.581C171.724 183.141 171.714 182.69 171.617 182.254C171.52 181.818 171.338 181.406 171.081 181.041C170.577 180.295 169.8 179.781 168.919 179.609C168.039 179.438 167.127 179.624 166.383 180.127L164.567 181.359V181.041C164.536 180.598 164.418 180.164 164.221 179.767C164.023 179.369 163.75 179.014 163.416 178.722C163.083 178.43 162.695 178.208 162.276 178.067C161.857 177.926 161.415 177.87 160.974 177.901C160.533 177.932 160.103 178.051 159.708 178.249C159.312 178.448 158.96 178.723 158.67 179.059C158.381 179.395 158.16 179.785 158.02 180.207C157.88 180.629 157.824 181.075 157.855 181.518V184.023V185.931L152.683 189.509L152.248 183.188L153.788 182.115L156.236 180.445C156.839 179.89 157.226 179.137 157.327 178.321C157.428 177.506 157.237 176.68 156.789 175.993C156.33 175.311 155.642 174.819 154.851 174.607C154.06 174.395 153.22 174.478 152.485 174.84L151.696 175.357V173.131C151.662 172.687 151.542 172.254 151.342 171.857C151.142 171.46 150.867 171.107 150.531 170.817C150.196 170.527 149.807 170.307 149.387 170.168C148.967 170.03 148.524 169.976 148.083 170.01C147.642 170.044 147.213 170.165 146.818 170.366C146.424 170.567 146.073 170.845 145.785 171.182C145.497 171.52 145.279 171.912 145.141 172.335C145.003 172.757 144.95 173.204 144.984 173.647V175.834H144.51C143.718 175.531 142.842 175.538 142.054 175.852C141.267 176.167 140.624 176.767 140.253 177.534C139.882 178.3 139.81 179.179 140.049 179.998C140.289 180.816 140.824 181.514 141.549 181.956L143.799 183.029L145.536 183.864L145.971 190.185L140.325 187.442V185.534L140.088 182.552C139.92 181.743 139.467 181.022 138.812 180.524C138.157 180.025 137.344 179.783 136.525 179.841C135.706 179.899 134.936 180.254 134.357 180.84C133.778 181.427 133.429 182.204 133.376 183.029V183.943L131.599 182.632C130.807 182.329 129.931 182.336 129.144 182.65C128.356 182.965 127.714 183.564 127.343 184.331C126.972 185.098 126.899 185.977 127.139 186.795C127.378 187.614 127.913 188.312 128.638 188.754L130.612 189.747L130.218 189.986C129.482 190.508 128.977 191.297 128.807 192.187C128.638 193.076 128.818 193.998 129.309 194.756C129.559 195.127 129.879 195.444 130.251 195.689C130.623 195.933 131.04 196.101 131.477 196.183C131.914 196.264 132.363 196.257 132.797 196.163C133.232 196.068 133.643 195.887 134.008 195.631L136.1 194.24L137.64 193.166L143.286 195.909L138.114 199.447L136.416 198.612L133.771 197.34C133.018 197.115 132.211 197.163 131.489 197.475C130.768 197.788 130.178 198.345 129.823 199.05C129.467 199.794 129.391 200.643 129.608 201.44C129.826 202.236 130.323 202.927 131.007 203.383L131.836 203.78L130.02 205.053C129.655 205.314 129.344 205.645 129.105 206.027C128.867 206.409 128.705 206.834 128.63 207.279C128.555 207.724 128.568 208.179 128.667 208.619C128.767 209.059 128.951 209.475 129.211 209.843C129.47 210.211 129.799 210.524 130.178 210.764C130.557 211.004 130.98 211.167 131.422 211.242C131.864 211.318 132.316 211.305 132.753 211.205C133.19 211.105 133.603 210.919 133.968 210.658L135.784 209.425V209.902C135.779 210.375 135.871 210.844 136.054 211.279C136.237 211.714 136.508 212.106 136.849 212.43C137.191 212.755 137.595 213.004 138.037 213.163C138.479 213.322 138.949 213.387 139.417 213.354C139.886 213.321 140.342 213.19 140.757 212.971C141.173 212.751 141.539 212.447 141.832 212.078C142.125 211.709 142.339 211.283 142.46 210.826C142.581 210.369 142.607 209.893 142.536 209.425V206.921V205.013L147.747 201.475L147.392 207.835L145.813 208.909L143.404 210.578C142.764 211.115 142.344 211.872 142.228 212.703C142.111 213.534 142.306 214.379 142.774 215.073C143.242 215.768 143.95 216.262 144.759 216.46C145.569 216.658 146.423 216.545 147.155 216.144L147.905 215.627V217.813C147.976 218.717 148.396 219.557 149.076 220.151C149.755 220.746 150.639 221.049 151.538 220.994C152.432 220.923 153.262 220.498 153.846 219.813C154.431 219.127 154.722 218.237 154.657 217.336V215.11L155.131 215.349C155.938 215.733 156.863 215.781 157.705 215.483C158.548 215.186 159.24 214.566 159.632 213.759C159.831 213.358 159.949 212.921 159.977 212.474C160.005 212.027 159.944 211.578 159.797 211.155C159.649 210.732 159.419 210.344 159.119 210.012C158.82 209.681 158.457 209.414 158.052 209.227L155.802 208.114L154.104 207.279L153.828 200.918L159.434 203.661V205.569V208.511C159.563 209.349 159.999 210.108 160.658 210.637C161.316 211.166 162.148 211.426 162.989 211.366C163.829 211.306 164.616 210.93 165.193 210.313C165.771 209.696 166.097 208.882 166.107 208.034V207.08L168.12 208.074C168.932 208.469 169.866 208.524 170.717 208.226C171.569 207.927 172.268 207.301 172.661 206.484C173.053 205.667 173.107 204.726 172.811 203.868C172.515 203.011 171.893 202.307 171.081 201.912L171.437 202.071Z"/>
</mask>
<path d="M171.437 202.071L169.423 201.117L169.818 200.839C170.189 200.591 170.507 200.271 170.754 199.897C171.001 199.524 171.172 199.105 171.256 198.665C171.341 198.225 171.338 197.772 171.247 197.333C171.155 196.894 170.979 196.477 170.726 196.108C170.221 195.362 169.444 194.847 168.564 194.676C167.684 194.505 166.772 194.691 166.028 195.194L163.975 196.625L162.395 197.698L156.749 194.915L161.961 191.377L163.659 192.212L166.304 193.524C167.083 193.783 167.929 193.749 168.685 193.429C169.441 193.109 170.057 192.524 170.418 191.783C170.779 191.041 170.861 190.193 170.649 189.395C170.437 188.597 169.946 187.903 169.265 187.442L168.436 187.004L170.252 185.772C170.617 185.518 170.928 185.193 171.168 184.817C171.407 184.441 171.57 184.021 171.647 183.581C171.724 183.141 171.714 182.69 171.617 182.254C171.52 181.818 171.338 181.406 171.081 181.041C170.577 180.295 169.8 179.781 168.919 179.609C168.039 179.438 167.127 179.624 166.383 180.127L164.567 181.359V181.041C164.536 180.598 164.418 180.164 164.221 179.767C164.023 179.369 163.75 179.014 163.416 178.722C163.083 178.43 162.695 178.208 162.276 178.067C161.857 177.926 161.415 177.87 160.974 177.901C160.533 177.932 160.103 178.051 159.708 178.249C159.312 178.448 158.96 178.723 158.67 179.059C158.381 179.395 158.16 179.785 158.02 180.207C157.88 180.629 157.824 181.075 157.855 181.518V184.023V185.931L152.683 189.509L152.248 183.188L153.788 182.115L156.236 180.445C156.839 179.89 157.226 179.137 157.327 178.321C157.428 177.506 157.237 176.68 156.789 175.993C156.33 175.311 155.642 174.819 154.851 174.607C154.06 174.395 153.22 174.478 152.485 174.84L151.696 175.357V173.131C151.662 172.687 151.542 172.254 151.342 171.857C151.142 171.46 150.867 171.107 150.531 170.817C150.196 170.527 149.807 170.307 149.387 170.168C148.967 170.03 148.524 169.976 148.083 170.01C147.642 170.044 147.213 170.165 146.818 170.366C146.424 170.567 146.073 170.845 145.785 171.182C145.497 171.52 145.279 171.912 145.141 172.335C145.003 172.757 144.95 173.204 144.984 173.647V175.834H144.51C143.718 175.531 142.842 175.538 142.054 175.852C141.267 176.167 140.624 176.767 140.253 177.534C139.882 178.3 139.81 179.179 140.049 179.998C140.289 180.816 140.824 181.514 141.549 181.956L143.799 183.029L145.536 183.864L145.971 190.185L140.325 187.442V185.534L140.088 182.552C139.92 181.743 139.467 181.022 138.812 180.524C138.157 180.025 137.344 179.783 136.525 179.841C135.706 179.899 134.936 180.254 134.357 180.84C133.778 181.427 133.429 182.204 133.376 183.029V183.943L131.599 182.632C130.807 182.329 129.931 182.336 129.144 182.65C128.356 182.965 127.714 183.564 127.343 184.331C126.972 185.098 126.899 185.977 127.139 186.795C127.378 187.614 127.913 188.312 128.638 188.754L130.612 189.747L130.218 189.986C129.482 190.508 128.977 191.297 128.807 192.187C128.638 193.076 128.818 193.998 129.309 194.756C129.559 195.127 129.879 195.444 130.251 195.689C130.623 195.933 131.04 196.101 131.477 196.183C131.914 196.264 132.363 196.257 132.797 196.163C133.232 196.068 133.643 195.887 134.008 195.631L136.1 194.24L137.64 193.166L143.286 195.909L138.114 199.447L136.416 198.612L133.771 197.34C133.018 197.115 132.211 197.163 131.489 197.475C130.768 197.788 130.178 198.345 129.823 199.05C129.467 199.794 129.391 200.643 129.608 201.44C129.826 202.236 130.323 202.927 131.007 203.383L131.836 203.78L130.02 205.053C129.655 205.314 129.344 205.645 129.105 206.027C128.867 206.409 128.705 206.834 128.63 207.279C128.555 207.724 128.568 208.179 128.667 208.619C128.767 209.059 128.951 209.475 129.211 209.843C129.47 210.211 129.799 210.524 130.178 210.764C130.557 211.004 130.98 211.167 131.422 211.242C131.864 211.318 132.316 211.305 132.753 211.205C133.19 211.105 133.603 210.919 133.968 210.658L135.784 209.425V209.902C135.779 210.375 135.871 210.844 136.054 211.279C136.237 211.714 136.508 212.106 136.849 212.43C137.191 212.755 137.595 213.004 138.037 213.163C138.479 213.322 138.949 213.387 139.417 213.354C139.886 213.321 140.342 213.19 140.757 212.971C141.173 212.751 141.539 212.447 141.832 212.078C142.125 211.709 142.339 211.283 142.46 210.826C142.581 210.369 142.607 209.893 142.536 209.425V206.921V205.013L147.747 201.475L147.392 207.835L145.813 208.909L143.404 210.578C142.764 211.115 142.344 211.872 142.228 212.703C142.111 213.534 142.306 214.379 142.774 215.073C143.242 215.768 143.95 216.262 144.759 216.46C145.569 216.658 146.423 216.545 147.155 216.144L147.905 215.627V217.813C147.976 218.717 148.396 219.557 149.076 220.151C149.755 220.746 150.639 221.049 151.538 220.994C152.432 220.923 153.262 220.498 153.846 219.813C154.431 219.127 154.722 218.237 154.657 217.336V215.11L155.131 215.349C155.938 215.733 156.863 215.781 157.705 215.483C158.548 215.186 159.24 214.566 159.632 213.759C159.831 213.358 159.949 212.921 159.977 212.474C160.005 212.027 159.944 211.578 159.797 211.155C159.649 210.732 159.419 210.344 159.119 210.012C158.82 209.681 158.457 209.414 158.052 209.227L155.802 208.114L154.104 207.279L153.828 200.918L159.434 203.661V205.569V208.511C159.563 209.349 159.999 210.108 160.658 210.637C161.316 211.166 162.148 211.426 162.989 211.366C163.829 211.306 164.616 210.93 165.193 210.313C165.771 209.696 166.097 208.882 166.107 208.034V207.08L168.12 208.074C168.932 208.469 169.866 208.524 170.717 208.226C171.569 207.927 172.268 207.301 172.661 206.484C173.053 205.667 173.107 204.726 172.811 203.868C172.515 203.011 171.893 202.307 171.081 201.912L171.437 202.071Z" fill="url(#paint4_linear_21_117)"/>
<path d="M171.437 202.071L169.423 201.117L169.818 200.839C170.189 200.591 170.507 200.271 170.754 199.897C171.001 199.524 171.172 199.105 171.256 198.665C171.341 198.225 171.338 197.772 171.247 197.333C171.155 196.894 170.979 196.477 170.726 196.108C170.221 195.362 169.444 194.847 168.564 194.676C167.684 194.505 166.772 194.691 166.028 195.194L163.975 196.625L162.395 197.698L156.749 194.915L161.961 191.377L163.659 192.212L166.304 193.524C167.083 193.783 167.929 193.749 168.685 193.429C169.441 193.109 170.057 192.524 170.418 191.783C170.779 191.041 170.861 190.193 170.649 189.395C170.437 188.597 169.946 187.903 169.265 187.442L168.436 187.004L170.252 185.772C170.617 185.518 170.928 185.193 171.168 184.817C171.407 184.441 171.57 184.021 171.647 183.581C171.724 183.141 171.714 182.69 171.617 182.254C171.52 181.818 171.338 181.406 171.081 181.041C170.577 180.295 169.8 179.781 168.919 179.609C168.039 179.438 167.127 179.624 166.383 180.127L164.567 181.359V181.041C164.536 180.598 164.418 180.164 164.221 179.767C164.023 179.369 163.75 179.014 163.416 178.722C163.083 178.43 162.695 178.208 162.276 178.067C161.857 177.926 161.415 177.87 160.974 177.901C160.533 177.932 160.103 178.051 159.708 178.249C159.312 178.448 158.96 178.723 158.67 179.059C158.381 179.395 158.16 179.785 158.02 180.207C157.88 180.629 157.824 181.075 157.855 181.518V184.023V185.931L152.683 189.509L152.248 183.188L153.788 182.115L156.236 180.445C156.839 179.89 157.226 179.137 157.327 178.321C157.428 177.506 157.237 176.68 156.789 175.993C156.33 175.311 155.642 174.819 154.851 174.607C154.06 174.395 153.22 174.478 152.485 174.84L151.696 175.357V173.131C151.662 172.687 151.542 172.254 151.342 171.857C151.142 171.46 150.867 171.107 150.531 170.817C150.196 170.527 149.807 170.307 149.387 170.168C148.967 170.03 148.524 169.976 148.083 170.01C147.642 170.044 147.213 170.165 146.818 170.366C146.424 170.567 146.073 170.845 145.785 171.182C145.497 171.52 145.279 171.912 145.141 172.335C145.003 172.757 144.95 173.204 144.984 173.647V175.834H144.51C143.718 175.531 142.842 175.538 142.054 175.852C141.267 176.167 140.624 176.767 140.253 177.534C139.882 178.3 139.81 179.179 140.049 179.998C140.289 180.816 140.824 181.514 141.549 181.956L143.799 183.029L145.536 183.864L145.971 190.185L140.325 187.442V185.534L140.088 182.552C139.92 181.743 139.467 181.022 138.812 180.524C138.157 180.025 137.344 179.783 136.525 179.841C135.706 179.899 134.936 180.254 134.357 180.84C133.778 181.427 133.429 182.204 133.376 183.029V183.943L131.599 182.632C130.807 182.329 129.931 182.336 129.144 182.65C128.356 182.965 127.714 183.564 127.343 184.331C126.972 185.098 126.899 185.977 127.139 186.795C127.378 187.614 127.913 188.312 128.638 188.754L130.612 189.747L130.218 189.986C129.482 190.508 128.977 191.297 128.807 192.187C128.638 193.076 128.818 193.998 129.309 194.756C129.559 195.127 129.879 195.444 130.251 195.689C130.623 195.933 131.04 196.101 131.477 196.183C131.914 196.264 132.363 196.257 132.797 196.163C133.232 196.068 133.643 195.887 134.008 195.631L136.1 194.24L137.64 193.166L143.286 195.909L138.114 199.447L136.416 198.612L133.771 197.34C133.018 197.115 132.211 197.163 131.489 197.475C130.768 197.788 130.178 198.345 129.823 199.05C129.467 199.794 129.391 200.643 129.608 201.44C129.826 202.236 130.323 202.927 131.007 203.383L131.836 203.78L130.02 205.053C129.655 205.314 129.344 205.645 129.105 206.027C128.867 206.409 128.705 206.834 128.63 207.279C128.555 207.724 128.568 208.179 128.667 208.619C128.767 209.059 128.951 209.475 129.211 209.843C129.47 210.211 129.799 210.524 130.178 210.764C130.557 211.004 130.98 211.167 131.422 211.242C131.864 211.318 132.316 211.305 132.753 211.205C133.19 211.105 133.603 210.919 133.968 210.658L135.784 209.425V209.902C135.779 210.375 135.871 210.844 136.054 211.279C136.237 211.714 136.508 212.106 136.849 212.43C137.191 212.755 137.595 213.004 138.037 213.163C138.479 213.322 138.949 213.387 139.417 213.354C139.886 213.321 140.342 213.19 140.757 212.971C141.173 212.751 141.539 212.447 141.832 212.078C142.125 211.709 142.339 211.283 142.46 210.826C142.581 210.369 142.607 209.893 142.536 209.425V206.921V205.013L147.747 201.475L147.392 207.835L145.813 208.909L143.404 210.578C142.764 211.115 142.344 211.872 142.228 212.703C142.111 213.534 142.306 214.379 142.774 215.073C143.242 215.768 143.95 216.262 144.759 216.46C145.569 216.658 146.423 216.545 147.155 216.144L147.905 215.627V217.813C147.976 218.717 148.396 219.557 149.076 220.151C149.755 220.746 150.639 221.049 151.538 220.994C152.432 220.923 153.262 220.498 153.846 219.813C154.431 219.127 154.722 218.237 154.657 217.336V215.11L155.131 215.349C155.938 215.733 156.863 215.781 157.705 215.483C158.548 215.186 159.24 214.566 159.632 213.759C159.831 213.358 159.949 212.921 159.977 212.474C160.005 212.027 159.944 211.578 159.797 211.155C159.649 210.732 159.419 210.344 159.119 210.012C158.82 209.681 158.457 209.414 158.052 209.227L155.802 208.114L154.104 207.279L153.828 200.918L159.434 203.661V205.569V208.511C159.563 209.349 159.999 210.108 160.658 210.637C161.316 211.166 162.148 211.426 162.989 211.366C163.829 211.306 164.616 210.93 165.193 210.313C165.771 209.696 166.097 208.882 166.107 208.034V207.08L168.12 208.074C168.932 208.469 169.866 208.524 170.717 208.226C171.569 207.927 172.268 207.301 172.661 206.484C173.053 205.667 173.107 204.726 172.811 203.868C172.515 203.011 171.893 202.307 171.081 201.912L171.437 202.071Z" stroke="url(#paint5_linear_21_117)" stroke-width="3" stroke-linecap="round" stroke-linejoin="round" mask="url(#path-4-inside-3_21_117)"/>
</g>
<g filter="url(#filter4_bdd_21_117)">
<mask id="path-5-inside-4_21_117" fill="white">
<path d="M263.437 212.071L261.423 211.117L261.818 210.839C262.189 210.591 262.507 210.271 262.754 209.897C263.001 209.524 263.172 209.105 263.256 208.665C263.341 208.225 263.338 207.772 263.247 207.333C263.155 206.894 262.979 206.477 262.726 206.108C262.221 205.362 261.444 204.847 260.564 204.676C259.684 204.505 258.772 204.691 258.028 205.194L255.975 206.625L254.395 207.698L248.749 204.915L253.961 201.377L255.659 202.212L258.304 203.524C259.083 203.783 259.929 203.749 260.685 203.429C261.441 203.109 262.057 202.524 262.418 201.783C262.779 201.041 262.861 200.193 262.649 199.395C262.437 198.597 261.946 197.903 261.265 197.442L260.436 197.004L262.252 195.772C262.617 195.518 262.928 195.193 263.168 194.817C263.407 194.441 263.57 194.021 263.647 193.581C263.724 193.141 263.714 192.69 263.617 192.254C263.52 191.818 263.338 191.406 263.081 191.041C262.577 190.295 261.8 189.781 260.919 189.609C260.039 189.438 259.127 189.624 258.383 190.127L256.567 191.359V191.041C256.536 190.598 256.418 190.164 256.221 189.767C256.023 189.369 255.75 189.014 255.416 188.722C255.083 188.43 254.695 188.208 254.276 188.067C253.857 187.926 253.415 187.87 252.974 187.901C252.533 187.932 252.103 188.051 251.708 188.249C251.312 188.448 250.96 188.723 250.67 189.059C250.381 189.395 250.16 189.785 250.02 190.207C249.88 190.629 249.824 191.075 249.855 191.518V194.023V195.931L244.683 199.509L244.248 193.188L245.788 192.115L248.236 190.445C248.839 189.89 249.226 189.137 249.327 188.321C249.428 187.506 249.237 186.68 248.789 185.993C248.33 185.311 247.642 184.819 246.851 184.607C246.06 184.395 245.22 184.478 244.485 184.84L243.696 185.357V183.131C243.662 182.687 243.542 182.254 243.342 181.857C243.142 181.46 242.867 181.107 242.531 180.817C242.196 180.527 241.807 180.307 241.387 180.168C240.967 180.03 240.524 179.976 240.083 180.01C239.642 180.044 239.213 180.165 238.818 180.366C238.424 180.567 238.073 180.845 237.785 181.182C237.497 181.52 237.279 181.912 237.141 182.335C237.003 182.757 236.95 183.204 236.984 183.647V185.834H236.51C235.718 185.531 234.842 185.538 234.054 185.852C233.267 186.167 232.624 186.767 232.253 187.534C231.882 188.3 231.81 189.179 232.049 189.998C232.289 190.816 232.824 191.514 233.549 191.956L235.799 193.029L237.536 193.864L237.971 200.185L232.325 197.442V195.534L232.088 192.552C231.92 191.743 231.467 191.022 230.812 190.524C230.157 190.025 229.344 189.783 228.525 189.841C227.706 189.899 226.936 190.254 226.357 190.84C225.778 191.427 225.429 192.204 225.376 193.029V193.943L223.599 192.632C222.807 192.329 221.931 192.336 221.144 192.65C220.356 192.965 219.714 193.564 219.343 194.331C218.972 195.098 218.899 195.977 219.139 196.795C219.378 197.614 219.913 198.312 220.638 198.754L222.612 199.747L222.218 199.986C221.482 200.508 220.977 201.297 220.807 202.187C220.638 203.076 220.818 203.998 221.309 204.756C221.559 205.127 221.879 205.444 222.251 205.689C222.623 205.933 223.04 206.101 223.477 206.183C223.914 206.264 224.363 206.257 224.797 206.163C225.232 206.068 225.643 205.887 226.008 205.631L228.1 204.24L229.64 203.166L235.286 205.909L230.114 209.447L228.416 208.612L225.771 207.34C225.018 207.115 224.211 207.163 223.489 207.475C222.768 207.788 222.178 208.345 221.823 209.05C221.467 209.794 221.391 210.643 221.608 211.44C221.826 212.236 222.323 212.927 223.007 213.383L223.836 213.78L222.02 215.053C221.655 215.314 221.344 215.645 221.105 216.027C220.867 216.409 220.705 216.834 220.63 217.279C220.555 217.724 220.568 218.179 220.667 218.619C220.767 219.059 220.951 219.475 221.211 219.843C221.47 220.211 221.799 220.524 222.178 220.764C222.557 221.004 222.98 221.167 223.422 221.242C223.864 221.318 224.316 221.305 224.753 221.205C225.19 221.105 225.603 220.919 225.968 220.658L227.784 219.425V219.902C227.779 220.375 227.871 220.844 228.054 221.279C228.237 221.714 228.508 222.106 228.849 222.43C229.191 222.755 229.595 223.004 230.037 223.163C230.479 223.322 230.949 223.387 231.417 223.354C231.886 223.321 232.342 223.19 232.757 222.971C233.173 222.751 233.539 222.447 233.832 222.078C234.125 221.709 234.339 221.283 234.46 220.826C234.581 220.369 234.607 219.893 234.536 219.425V216.921V215.013L239.747 211.475L239.392 217.835L237.813 218.909L235.404 220.578C234.764 221.115 234.344 221.872 234.228 222.703C234.111 223.534 234.306 224.379 234.774 225.073C235.242 225.768 235.95 226.262 236.759 226.46C237.569 226.658 238.423 226.545 239.155 226.144L239.905 225.627V227.813C239.976 228.717 240.396 229.557 241.076 230.151C241.755 230.746 242.639 231.049 243.538 230.994C244.432 230.923 245.262 230.498 245.846 229.813C246.431 229.127 246.722 228.237 246.657 227.336V225.11L247.131 225.349C247.938 225.733 248.863 225.781 249.705 225.483C250.548 225.186 251.24 224.566 251.632 223.759C251.831 223.358 251.949 222.921 251.977 222.474C252.005 222.027 251.944 221.578 251.797 221.155C251.649 220.732 251.419 220.344 251.119 220.012C250.82 219.681 250.457 219.414 250.052 219.227L247.802 218.114L246.104 217.279L245.828 210.918L251.434 213.661V215.569V218.511C251.563 219.349 251.999 220.108 252.658 220.637C253.316 221.166 254.148 221.426 254.989 221.366C255.829 221.306 256.616 220.93 257.193 220.313C257.771 219.696 258.097 218.882 258.107 218.034V217.08L260.12 218.074C260.932 218.469 261.866 218.524 262.717 218.226C263.569 217.927 264.268 217.301 264.661 216.484C265.053 215.667 265.107 214.726 264.811 213.868C264.515 213.011 263.893 212.307 263.081 211.912L263.437 212.071Z"/>
</mask>
<path d="M263.437 212.071L261.423 211.117L261.818 210.839C262.189 210.591 262.507 210.271 262.754 209.897C263.001 209.524 263.172 209.105 263.256 208.665C263.341 208.225 263.338 207.772 263.247 207.333C263.155 206.894 262.979 206.477 262.726 206.108C262.221 205.362 261.444 204.847 260.564 204.676C259.684 204.505 258.772 204.691 258.028 205.194L255.975 206.625L254.395 207.698L248.749 204.915L253.961 201.377L255.659 202.212L258.304 203.524C259.083 203.783 259.929 203.749 260.685 203.429C261.441 203.109 262.057 202.524 262.418 201.783C262.779 201.041 262.861 200.193 262.649 199.395C262.437 198.597 261.946 197.903 261.265 197.442L260.436 197.004L262.252 195.772C262.617 195.518 262.928 195.193 263.168 194.817C263.407 194.441 263.57 194.021 263.647 193.581C263.724 193.141 263.714 192.69 263.617 192.254C263.52 191.818 263.338 191.406 263.081 191.041C262.577 190.295 261.8 189.781 260.919 189.609C260.039 189.438 259.127 189.624 258.383 190.127L256.567 191.359V191.041C256.536 190.598 256.418 190.164 256.221 189.767C256.023 189.369 255.75 189.014 255.416 188.722C255.083 188.43 254.695 188.208 254.276 188.067C253.857 187.926 253.415 187.87 252.974 187.901C252.533 187.932 252.103 188.051 251.708 188.249C251.312 188.448 250.96 188.723 250.67 189.059C250.381 189.395 250.16 189.785 250.02 190.207C249.88 190.629 249.824 191.075 249.855 191.518V194.023V195.931L244.683 199.509L244.248 193.188L245.788 192.115L248.236 190.445C248.839 189.89 249.226 189.137 249.327 188.321C249.428 187.506 249.237 186.68 248.789 185.993C248.33 185.311 247.642 184.819 246.851 184.607C246.06 184.395 245.22 184.478 244.485 184.84L243.696 185.357V183.131C243.662 182.687 243.542 182.254 243.342 181.857C243.142 181.46 242.867 181.107 242.531 180.817C242.196 180.527 241.807 180.307 241.387 180.168C240.967 180.03 240.524 179.976 240.083 180.01C239.642 180.044 239.213 180.165 238.818 180.366C238.424 180.567 238.073 180.845 237.785 181.182C237.497 181.52 237.279 181.912 237.141 182.335C237.003 182.757 236.95 183.204 236.984 183.647V185.834H236.51C235.718 185.531 234.842 185.538 234.054 185.852C233.267 186.167 232.624 186.767 232.253 187.534C231.882 188.3 231.81 189.179 232.049 189.998C232.289 190.816 232.824 191.514 233.549 191.956L235.799 193.029L237.536 193.864L237.971 200.185L232.325 197.442V195.534L232.088 192.552C231.92 191.743 231.467 191.022 230.812 190.524C230.157 190.025 229.344 189.783 228.525 189.841C227.706 189.899 226.936 190.254 226.357 190.84C225.778 191.427 225.429 192.204 225.376 193.029V193.943L223.599 192.632C222.807 192.329 221.931 192.336 221.144 192.65C220.356 192.965 219.714 193.564 219.343 194.331C218.972 195.098 218.899 195.977 219.139 196.795C219.378 197.614 219.913 198.312 220.638 198.754L222.612 199.747L222.218 199.986C221.482 200.508 220.977 201.297 220.807 202.187C220.638 203.076 220.818 203.998 221.309 204.756C221.559 205.127 221.879 205.444 222.251 205.689C222.623 205.933 223.04 206.101 223.477 206.183C223.914 206.264 224.363 206.257 224.797 206.163C225.232 206.068 225.643 205.887 226.008 205.631L228.1 204.24L229.64 203.166L235.286 205.909L230.114 209.447L228.416 208.612L225.771 207.34C225.018 207.115 224.211 207.163 223.489 207.475C222.768 207.788 222.178 208.345 221.823 209.05C221.467 209.794 221.391 210.643 221.608 211.44C221.826 212.236 222.323 212.927 223.007 213.383L223.836 213.78L222.02 215.053C221.655 215.314 221.344 215.645 221.105 216.027C220.867 216.409 220.705 216.834 220.63 217.279C220.555 217.724 220.568 218.179 220.667 218.619C220.767 219.059 220.951 219.475 221.211 219.843C221.47 220.211 221.799 220.524 222.178 220.764C222.557 221.004 222.98 221.167 223.422 221.242C223.864 221.318 224.316 221.305 224.753 221.205C225.19 221.105 225.603 220.919 225.968 220.658L227.784 219.425V219.902C227.779 220.375 227.871 220.844 228.054 221.279C228.237 221.714 228.508 222.106 228.849 222.43C229.191 222.755 229.595 223.004 230.037 223.163C230.479 223.322 230.949 223.387 231.417 223.354C231.886 223.321 232.342 223.19 232.757 222.971C233.173 222.751 233.539 222.447 233.832 222.078C234.125 221.709 234.339 221.283 234.46 220.826C234.581 220.369 234.607 219.893 234.536 219.425V216.921V215.013L239.747 211.475L239.392 217.835L237.813 218.909L235.404 220.578C234.764 221.115 234.344 221.872 234.228 222.703C234.111 223.534 234.306 224.379 234.774 225.073C235.242 225.768 235.95 226.262 236.759 226.46C237.569 226.658 238.423 226.545 239.155 226.144L239.905 225.627V227.813C239.976 228.717 240.396 229.557 241.076 230.151C241.755 230.746 242.639 231.049 243.538 230.994C244.432 230.923 245.262 230.498 245.846 229.813C246.431 229.127 246.722 228.237 246.657 227.336V225.11L247.131 225.349C247.938 225.733 248.863 225.781 249.705 225.483C250.548 225.186 251.24 224.566 251.632 223.759C251.831 223.358 251.949 222.921 251.977 222.474C252.005 222.027 251.944 221.578 251.797 221.155C251.649 220.732 251.419 220.344 251.119 220.012C250.82 219.681 250.457 219.414 250.052 219.227L247.802 218.114L246.104 217.279L245.828 210.918L251.434 213.661V215.569V218.511C251.563 219.349 251.999 220.108 252.658 220.637C253.316 221.166 254.148 221.426 254.989 221.366C255.829 221.306 256.616 220.93 257.193 220.313C257.771 219.696 258.097 218.882 258.107 218.034V217.08L260.12 218.074C260.932 218.469 261.866 218.524 262.717 218.226C263.569 217.927 264.268 217.301 264.661 216.484C265.053 215.667 265.107 214.726 264.811 213.868C264.515 213.011 263.893 212.307 263.081 211.912L263.437 212.071Z" fill="url(#paint6_linear_21_117)"/>
<path d="M263.437 212.071L261.423 211.117L261.818 210.839C262.189 210.591 262.507 210.271 262.754 209.897C263.001 209.524 263.172 209.105 263.256 208.665C263.341 208.225 263.338 207.772 263.247 207.333C263.155 206.894 262.979 206.477 262.726 206.108C262.221 205.362 261.444 204.847 260.564 204.676C259.684 204.505 258.772 204.691 258.028 205.194L255.975 206.625L254.395 207.698L248.749 204.915L253.961 201.377L255.659 202.212L258.304 203.524C259.083 203.783 259.929 203.749 260.685 203.429C261.441 203.109 262.057 202.524 262.418 201.783C262.779 201.041 262.861 200.193 262.649 199.395C262.437 198.597 261.946 197.903 261.265 197.442L260.436 197.004L262.252 195.772C262.617 195.518 262.928 195.193 263.168 194.817C263.407 194.441 263.57 194.021 263.647 193.581C263.724 193.141 263.714 192.69 263.617 192.254C263.52 191.818 263.338 191.406 263.081 191.041C262.577 190.295 261.8 189.781 260.919 189.609C260.039 189.438 259.127 189.624 258.383 190.127L256.567 191.359V191.041C256.536 190.598 256.418 190.164 256.221 189.767C256.023 189.369 255.75 189.014 255.416 188.722C255.083 188.43 254.695 188.208 254.276 188.067C253.857 187.926 253.415 187.87 252.974 187.901C252.533 187.932 252.103 188.051 251.708 188.249C251.312 188.448 250.96 188.723 250.67 189.059C250.381 189.395 250.16 189.785 250.02 190.207C249.88 190.629 249.824 191.075 249.855 191.518V194.023V195.931L244.683 199.509L244.248 193.188L245.788 192.115L248.236 190.445C248.839 189.89 249.226 189.137 249.327 188.321C249.428 187.506 249.237 186.68 248.789 185.993C248.33 185.311 247.642 184.819 246.851 184.607C246.06 184.395 245.22 184.478 244.485 184.84L243.696 185.357V183.131C243.662 182.687 243.542 182.254 243.342 181.857C243.142 181.46 242.867 181.107 242.531 180.817C242.196 180.527 241.807 180.307 241.387 180.168C240.967 180.03 240.524 179.976 240.083 180.01C239.642 180.044 239.213 180.165 238.818 180.366C238.424 180.567 238.073 180.845 237.785 181.182C237.497 181.52 237.279 181.912 237.141 182.335C237.003 182.757 236.95 183.204 236.984 183.647V185.834H236.51C235.718 185.531 234.842 185.538 234.054 185.852C233.267 186.167 232.624 186.767 232.253 187.534C231.882 188.3 231.81 189.179 232.049 189.998C232.289 190.816 232.824 191.514 233.549 191.956L235.799 193.029L237.536 193.864L237.971 200.185L232.325 197.442V195.534L232.088 192.552C231.92 191.743 231.467 191.022 230.812 190.524C230.157 190.025 229.344 189.783 228.525 189.841C227.706 189.899 226.936 190.254 226.357 190.84C225.778 191.427 225.429 192.204 225.376 193.029V193.943L223.599 192.632C222.807 192.329 221.931 192.336 221.144 192.65C220.356 192.965 219.714 193.564 219.343 194.331C218.972 195.098 218.899 195.977 219.139 196.795C219.378 197.614 219.913 198.312 220.638 198.754L222.612 199.747L222.218 199.986C221.482 200.508 220.977 201.297 220.807 202.187C220.638 203.076 220.818 203.998 221.309 204.756C221.559 205.127 221.879 205.444 222.251 205.689C222.623 205.933 223.04 206.101 223.477 206.183C223.914 206.264 224.363 206.257 224.797 206.163C225.232 206.068 225.643 205.887 226.008 205.631L228.1 204.24L229.64 203.166L235.286 205.909L230.114 209.447L228.416 208.612L225.771 207.34C225.018 207.115 224.211 207.163 223.489 207.475C222.768 207.788 222.178 208.345 221.823 209.05C221.467 209.794 221.391 210.643 221.608 211.44C221.826 212.236 222.323 212.927 223.007 213.383L223.836 213.78L222.02 215.053C221.655 215.314 221.344 215.645 221.105 216.027C220.867 216.409 220.705 216.834 220.63 217.279C220.555 217.724 220.568 218.179 220.667 218.619C220.767 219.059 220.951 219.475 221.211 219.843C221.47 220.211 221.799 220.524 222.178 220.764C222.557 221.004 222.98 221.167 223.422 221.242C223.864 221.318 224.316 221.305 224.753 221.205C225.19 221.105 225.603 220.919 225.968 220.658L227.784 219.425V219.902C227.779 220.375 227.871 220.844 228.054 221.279C228.237 221.714 228.508 222.106 228.849 222.43C229.191 222.755 229.595 223.004 230.037 223.163C230.479 223.322 230.949 223.387 231.417 223.354C231.886 223.321 232.342 223.19 232.757 222.971C233.173 222.751 233.539 222.447 233.832 222.078C234.125 221.709 234.339 221.283 234.46 220.826C234.581 220.369 234.607 219.893 234.536 219.425V216.921V215.013L239.747 211.475L239.392 217.835L237.813 218.909L235.404 220.578C234.764 221.115 234.344 221.872 234.228 222.703C234.111 223.534 234.306 224.379 234.774 225.073C235.242 225.768 235.95 226.262 236.759 226.46C237.569 226.658 238.423 226.545 239.155 226.144L239.905 225.627V227.813C239.976 228.717 240.396 229.557 241.076 230.151C241.755 230.746 242.639 231.049 243.538 230.994C244.432 230.923 245.262 230.498 245.846 229.813C246.431 229.127 246.722 228.237 246.657 227.336V225.11L247.131 225.349C247.938 225.733 248.863 225.781 249.705 225.483C250.548 225.186 251.24 224.566 251.632 223.759C251.831 223.358 251.949 222.921 251.977 222.474C252.005 222.027 251.944 221.578 251.797 221.155C251.649 220.732 251.419 220.344 251.119 220.012C250.82 219.681 250.457 219.414 250.052 219.227L247.802 218.114L246.104 217.279L245.828 210.918L251.434 213.661V215.569V218.511C251.563 219.349 251.999 220.108 252.658 220.637C253.316 221.166 254.148 221.426 254.989 221.366C255.829 221.306 256.616 220.93 257.193 220.313C257.771 219.696 258.097 218.882 258.107 218.034V217.08L260.12 218.074C260.932 218.469 261.866 218.524 262.717 218.226C263.569 217.927 264.268 217.301 264.661 216.484C265.053 215.667 265.107 214.726 264.811 213.868C264.515 213.011 263.893 212.307 263.081 211.912L263.437 212.071Z" stroke="url(#paint7_linear_21_117)" stroke-width="3" stroke-linecap="round" stroke-linejoin="round" mask="url(#path-5-inside-4_21_117)"/>
</g>
</g>
<g filter="url(#filter5_bd_21_117)">
<mask id="path-6-inside-5_21_117" fill="white">
<path fill-rule="evenodd" clip-rule="evenodd" d="M343.563 151.351C343.683 151.352 343.804 151.353 343.924 151.353C361.087 151.353 375 137.44 375 120.277C375 103.115 361.087 89.2017 343.924 89.2017C343.804 89.2017 343.683 89.2024 343.563 89.2037V89.2017H335.535C335.825 87.075 335.975 84.9037 335.975 82.6975C335.975 56.3549 314.62 35 288.277 35C261.935 35 240.58 56.3549 240.58 82.6975C240.58 85.1831 240.77 87.6243 241.136 90.0074C238.868 89.4803 236.504 89.2017 234.076 89.2017C216.913 89.2017 203 103.115 203 120.277C203 137.44 216.913 151.353 234.076 151.353C234.197 151.353 234.318 151.352 234.439 151.351L234.437 151.353H343.563V151.351Z"/>
</mask>
<path fill-rule="evenodd" clip-rule="evenodd" d="M343.563 151.351C343.683 151.352 343.804 151.353 343.924 151.353C361.087 151.353 375 137.44 375 120.277C375 103.115 361.087 89.2017 343.924 89.2017C343.804 89.2017 343.683 89.2024 343.563 89.2037V89.2017H335.535C335.825 87.075 335.975 84.9037 335.975 82.6975C335.975 56.3549 314.62 35 288.277 35C261.935 35 240.58 56.3549 240.58 82.6975C240.58 85.1831 240.77 87.6243 241.136 90.0074C238.868 89.4803 236.504 89.2017 234.076 89.2017C216.913 89.2017 203 103.115 203 120.277C203 137.44 216.913 151.353 234.076 151.353C234.197 151.353 234.318 151.352 234.439 151.351L234.437 151.353H343.563V151.351Z" fill="url(#paint8_linear_21_117)" shape-rendering="crispEdges"/>
<path d="M343.563 151.351L343.586 149.351C343.052 149.345 342.537 149.553 342.157 149.929C341.777 150.304 341.563 150.816 341.563 151.351H343.563ZM343.563 89.2037H341.563C341.563 89.7381 341.777 90.2503 342.157 90.626C342.537 91.0017 343.051 91.2097 343.586 91.2036L343.563 89.2037ZM343.563 89.2017H345.563C345.563 88.0971 344.668 87.2017 343.563 87.2017V89.2017ZM335.535 89.2017L333.553 88.9315C333.475 89.5037 333.649 90.0818 334.028 90.5169C334.408 90.952 334.957 91.2017 335.535 91.2017V89.2017ZM241.136 90.0074L240.684 91.9555C241.33 92.1057 242.009 91.9253 242.496 91.4741C242.983 91.0228 243.214 90.3594 243.113 89.7033L241.136 90.0074ZM234.439 151.351L236.008 152.59C236.486 151.985 236.573 151.16 236.233 150.468C235.893 149.777 235.186 149.342 234.416 149.351L234.439 151.351ZM234.437 151.353L232.867 150.114C232.392 150.715 232.303 151.535 232.637 152.225C232.971 152.915 233.67 153.353 234.437 153.353V151.353ZM343.563 151.353V153.353C344.668 153.353 345.563 152.458 345.563 151.353H343.563ZM343.54 153.351C343.668 153.352 343.796 153.353 343.924 153.353V149.353C343.811 149.353 343.699 149.352 343.586 149.351L343.54 153.351ZM343.924 153.353C362.192 153.353 377 138.544 377 120.277H373C373 136.335 359.982 149.353 343.924 149.353V153.353ZM377 120.277C377 102.01 362.192 87.2017 343.924 87.2017V91.2017C359.982 91.2017 373 104.219 373 120.277H377ZM343.924 87.2017C343.796 87.2017 343.668 87.2024 343.54 87.2039L343.586 91.2036C343.698 91.2023 343.811 91.2017 343.924 91.2017V87.2017ZM341.563 89.2017V89.2037H345.563V89.2017H341.563ZM335.535 91.2017H343.563V87.2017H335.535V91.2017ZM337.517 89.4719C337.819 87.2559 337.975 84.9944 337.975 82.6975H333.975C333.975 84.8131 333.831 86.8941 333.553 88.9315L337.517 89.4719ZM337.975 82.6975C337.975 55.2503 315.724 33 288.277 33V37C313.515 37 333.975 57.4595 333.975 82.6975H337.975ZM288.277 33C260.83 33 238.58 55.2503 238.58 82.6975H242.58C242.58 57.4595 263.039 37 288.277 37V33ZM238.58 82.6975C238.58 85.2852 238.778 87.8281 239.16 90.3114L243.113 89.7033C242.762 87.4205 242.58 85.081 242.58 82.6975H238.58ZM241.589 88.0592C239.173 87.498 236.658 87.2017 234.076 87.2017V91.2017C236.351 91.2017 238.563 91.4627 240.684 91.9555L241.589 88.0592ZM234.076 87.2017C215.808 87.2017 201 102.01 201 120.277H205C205 104.219 218.018 91.2017 234.076 91.2017V87.2017ZM201 120.277C201 138.544 215.808 153.353 234.076 153.353V149.353C218.018 149.353 205 136.335 205 120.277H201ZM234.076 153.353C234.204 153.353 234.333 153.352 234.461 153.351L234.416 149.351C234.303 149.352 234.189 149.353 234.076 149.353V153.353ZM236.007 152.592L236.008 152.59L232.869 150.112L232.867 150.114L236.007 152.592ZM343.563 149.353H234.437V153.353H343.563V149.353ZM341.563 151.351V151.353H345.563V151.351H341.563Z" fill="url(#paint9_linear_21_117)" mask="url(#path-6-inside-5_21_117)"/>
</g>
<defs>
<filter id="filter0_bd_21_117" x="0" y="0" width="338" height="261" filterUnits="userSpaceOnUse" color-interpolation-filters="sRGB">
<feFlood flood-opacity="0" result="BackgroundImageFix"/>
<feGaussianBlur in="BackgroundImageFix" stdDeviation="7"/>
<feComposite in2="SourceAlpha" operator="in" result="effect1_backgroundBlur_21_117"/>
<feColorMatrix in="SourceAlpha" type="matrix" values="0 0 0 0 0 0 0 0 0 0 0 0 0 0 0 0 0 0 127 0" result="hardAlpha"/>
<feOffset dx="-21" dy="15"/>
<feGaussianBlur stdDeviation="25"/>
<feComposite in2="hardAlpha" operator="out"/>
<feColorMatrix type="matrix" values="0 0 0 0 0.113725 0 0 0 0 0.14902 0 0 0 0 0.27451 0 0 0 0.25 0"/>
<feBlend mode="normal" in2="effect1_backgroundBlur_21_117" result="effect2_dropShadow_21_117"/>
<feBlend mode="normal" in="SourceGraphic" in2="effect2_dropShadow_21_117" result="shape"/>
</filter>
<filter id="filter1_bdd_21_117" x="56" y="122" width="250" height="215" filterUnits="userSpaceOnUse" color-interpolation-filters="sRGB">
<feFlood flood-opacity="0" result="BackgroundImageFix"/>
<feGaussianBlur in="BackgroundImageFix" stdDeviation="7"/>
<feComposite in2="SourceAlpha" operator="in" result="effect1_backgroundBlur_21_117"/>
<feColorMatrix in="SourceAlpha" type="matrix" values="0 0 0 0 0 0 0 0 0 0 0 0 0 0 0 0 0 0 127 0" result="hardAlpha"/>
<feOffset dy="-7"/>
<feGaussianBlur stdDeviation="20.5"/>
<feComposite in2="hardAlpha" operator="out"/>
<feColorMatrix type="matrix" values="0 0 0 0 0 0 0 0 0 0 0 0 0 0 0 0 0 0 0.25 0"/>
<feBlend mode="normal" in2="effect1_backgroundBlur_21_117" result="effect2_dropShadow_21_117"/>
<feColorMatrix in="SourceAlpha" type="matrix" values="0 0 0 0 0 0 0 0 0 0 0 0 0 0 0 0 0 0 127 0" result="hardAlpha"/>
<feOffset dx="-21" dy="15"/>
<feGaussianBlur stdDeviation="25"/>
<feComposite in2="hardAlpha" operator="out"/>
<feColorMatrix type="matrix" values="0 0 0 0 0.054902 0 0 0 0 0.85098 0 0 0 0 0.960784 0 0 0 0.3 0"/>
<feBlend mode="normal" in2="effect2_dropShadow_21_117" result="effect3_dropShadow_21_117"/>
<feBlend mode="normal" in="SourceGraphic" in2="effect3_dropShadow_21_117" result="shape"/>
</filter>
<filter id="filter2_bdd_21_117" x="102" y="173" width="158" height="164" filterUnits="userSpaceOnUse" color-interpolation-filters="sRGB">
<feFlood flood-opacity="0" result="BackgroundImageFix"/>
<feGaussianBlur in="BackgroundImageFix" stdDeviation="7"/>
<feComposite in2="SourceAlpha" operator="in" result="effect1_backgroundBlur_21_117"/>
<feColorMatrix in="SourceAlpha" type="matrix" values="0 0 0 0 0 0 0 0 0 0 0 0 0 0 0 0 0 0 127 0" result="hardAlpha"/>
<feOffset dy="-7"/>
<feGaussianBlur stdDeviation="20.5"/>
<feComposite in2="hardAlpha" operator="out"/>
<feColorMatrix type="matrix" values="0 0 0 0 0.054902 0 0 0 0 0.85098 0 0 0 0 0.960784 0 0 0 0.3 0"/>
<feBlend mode="normal" in2="effect1_backgroundBlur_21_117" result="effect2_dropShadow_21_117"/>
<feColorMatrix in="SourceAlpha" type="matrix" values="0 0 0 0 0 0 0 0 0 0 0 0 0 0 0 0 0 0 127 0" result="hardAlpha"/>
<feOffset dx="-21" dy="15"/>
<feGaussianBlur stdDeviation="25"/>
<feComposite in2="hardAlpha" operator="out"/>
<feColorMatrix type="matrix" values="0 0 0 0 0.027451 0 0 0 0 0.27451 0 0 0 0 0.909804 0 0 0 0.25 0"/>
<feBlend mode="normal" in2="effect2_dropShadow_21_117" result="effect3_dropShadow_21_117"/>
<feBlend mode="normal" in="SourceGraphic" in2="effect3_dropShadow_21_117" result="shape"/>
</filter>
<filter id="filter3_bdd_21_117" x="56" y="122" width="158" height="164" filterUnits="userSpaceOnUse" color-interpolation-filters="sRGB">
<feFlood flood-opacity="0" result="BackgroundImageFix"/>
<feGaussianBlur in="BackgroundImageFix" stdDeviation="7"/>
<feComposite in2="SourceAlpha" operator="in" result="effect1_backgroundBlur_21_117"/>
<feColorMatrix in="SourceAlpha" type="matrix" values="0 0 0 0 0 0 0 0 0 0 0 0 0 0 0 0 0 0 127 0" result="hardAlpha"/>
<feOffset dy="-7"/>
<feGaussianBlur stdDeviation="20.5"/>
<feComposite in2="hardAlpha" operator="out"/>
<feColorMatrix type="matrix" values="0 0 0 0 0.054902 0 0 0 0 0.85098 0 0 0 0 0.960784 0 0 0 0.3 0"/>
<feBlend mode="normal" in2="effect1_backgroundBlur_21_117" result="effect2_dropShadow_21_117"/>
<feColorMatrix in="SourceAlpha" type="matrix" values="0 0 0 0 0 0 0 0 0 0 0 0 0 0 0 0 0 0 127 0" result="hardAlpha"/>
<feOffset dx="-21" dy="15"/>
<feGaussianBlur stdDeviation="25"/>
<feComposite in2="hardAlpha" operator="out"/>
<feColorMatrix type="matrix" values="0 0 0 0 0.027451 0 0 0 0 0.27451 0 0 0 0 0.909804 0 0 0 0.25 0"/>
<feBlend mode="normal" in2="effect2_dropShadow_21_117" result="effect3_dropShadow_21_117"/>
<feBlend mode="normal" in="SourceGraphic" in2="effect3_dropShadow_21_117" result="shape"/>
</filter>
<filter id="filter4_bdd_21_117" x="148" y="132" width="158" height="164" filterUnits="userSpaceOnUse" color-interpolation-filters="sRGB">
<feFlood flood-opacity="0" result="BackgroundImageFix"/>
<feGaussianBlur in="BackgroundImageFix" stdDeviation="7"/>
<feComposite in2="SourceAlpha" operator="in" result="effect1_backgroundBlur_21_117"/>
<feColorMatrix in="SourceAlpha" type="matrix" values="0 0 0 0 0 0 0 0 0 0 0 0 0 0 0 0 0 0 127 0" result="hardAlpha"/>
<feOffset dy="-7"/>
<feGaussianBlur stdDeviation="20.5"/>
<feComposite in2="hardAlpha" operator="out"/>
<feColorMatrix type="matrix" values="0 0 0 0 0.054902 0 0 0 0 0.85098 0 0 0 0 0.960784 0 0 0 0.3 0"/>
<feBlend mode="normal" in2="effect1_backgroundBlur_21_117" result="effect2_dropShadow_21_117"/>
<feColorMatrix in="SourceAlpha" type="matrix" values="0 0 0 0 0 0 0 0 0 0 0 0 0 0 0 0 0 0 127 0" result="hardAlpha"/>
<feOffset dx="-21" dy="15"/>
<feGaussianBlur stdDeviation="25"/>
<feComposite in2="hardAlpha" operator="out"/>
<feColorMatrix type="matrix" values="0 0 0 0 0.027451 0 0 0 0 0.27451 0 0 0 0 0.909804 0 0 0 0.25 0"/>
<feBlend mode="normal" in2="effect2_dropShadow_21_117" result="effect3_dropShadow_21_117"/>
<feBlend mode="normal" in="SourceGraphic" in2="effect3_dropShadow_21_117" result="shape"/>
</filter>
<filter id="filter5_bd_21_117" x="132" y="0" width="272" height="216.353" filterUnits="userSpaceOnUse" color-interpolation-filters="sRGB">
<feFlood flood-opacity="0" result="BackgroundImageFix"/>
<feGaussianBlur in="BackgroundImageFix" stdDeviation="7"/>
<feComposite in2="SourceAlpha" operator="in" result="effect1_backgroundBlur_21_117"/>
<feColorMatrix in="SourceAlpha" type="matrix" values="0 0 0 0 0 0 0 0 0 0 0 0 0 0 0 0 0 0 127 0" result="hardAlpha"/>
<feOffset dx="-21" dy="15"/>
<feGaussianBlur stdDeviation="25"/>
<feComposite in2="hardAlpha" operator="out"/>
<feColorMatrix type="matrix" values="0 0 0 0 0.113438 0 0 0 0 0.148981 0 0 0 0 0.275 0 0 0 0.25 0"/>
<feBlend mode="normal" in2="effect1_backgroundBlur_21_117" result="effect2_dropShadow_21_117"/>
<feBlend mode="normal" in="SourceGraphic" in2="effect2_dropShadow_21_117" result="shape"/>
</filter>
<linearGradient id="paint0_linear_21_117" x1="190" y1="-16.5" x2="190" y2="218.5" gradientUnits="userSpaceOnUse">
<stop stop-color="white"/>
<stop offset="1" stop-color="white" stop-opacity="0"/>
</linearGradient>
<linearGradient id="paint1_linear_21_117" x1="190" y1="35" x2="190" y2="196" gradientUnits="userSpaceOnUse">
<stop stop-color="white"/>
<stop offset="1" stop-color="white" stop-opacity="0"/>
</linearGradient>
<linearGradient id="paint2_linear_21_117" x1="196" y1="221" x2="196" y2="272" gradientUnits="userSpaceOnUse">
<stop stop-color="#0746E8"/>
<stop offset="1" stop-color="#0ED9F5"/>
</linearGradient>
<linearGradient id="paint3_linear_21_117" x1="191.5" y1="171" x2="196.5" y2="369.5" gradientUnits="userSpaceOnUse">
<stop stop-color="white"/>
<stop offset="1" stop-color="white" stop-opacity="0"/>
</linearGradient>
<linearGradient id="paint4_linear_21_117" x1="150" y1="170" x2="150" y2="221" gradientUnits="userSpaceOnUse">
<stop stop-color="#0746E8"/>
<stop offset="1" stop-color="#0ED9F5"/>
</linearGradient>
<linearGradient id="paint5_linear_21_117" x1="145.5" y1="120" x2="150.5" y2="318.5" gradientUnits="userSpaceOnUse">
<stop stop-color="white"/>
<stop offset="1" stop-color="white" stop-opacity="0"/>
</linearGradient>
<linearGradient id="paint6_linear_21_117" x1="242" y1="180" x2="242" y2="231" gradientUnits="userSpaceOnUse">
<stop stop-color="#0746E8"/>
<stop offset="1" stop-color="#0ED9F5"/>
</linearGradient>
<linearGradient id="paint7_linear_21_117" x1="237.5" y1="130" x2="242.5" y2="328.5" gradientUnits="userSpaceOnUse">
<stop stop-color="white"/>
<stop offset="1" stop-color="white" stop-opacity="0"/>
</linearGradient>
<linearGradient id="paint8_linear_21_117" x1="297" y1="38.5" x2="297" y2="164.5" gradientUnits="userSpaceOnUse">
<stop stop-color="white"/>
<stop offset="1" stop-color="white" stop-opacity="0"/>
</linearGradient>
<linearGradient id="paint9_linear_21_117" x1="289" y1="35" x2="289" y2="151.353" gradientUnits="userSpaceOnUse">
<stop stop-color="white"/>
<stop offset="1" stop-color="white" stop-opacity="0"/>
</linearGradient>
</defs>
</svg>
